<svg width="1200" height="680" viewBox="0 0 1200 680" fill="none" xmlns="http://www.w3.org/2000/svg">
  <rect width="1200" height="680" rx="32" fill="#070A12"/>
  <circle cx="220" cy="0" r="320" fill="#1E3A8A" opacity="0.28"/>
  <rect x="34" y="34" width="240" height="612" rx="24" fill="#0F172A" stroke="#243044"/>
  <rect x="306" y="34" width="860" height="118" rx="24" fill="#101827" stroke="#243044"/>
  <rect x="306" y="178" width="530" height="288" rx="24" fill="#101827" stroke="#243044"/>
  <rect x="860" y="178" width="306" height="288" rx="24" fill="#101827" stroke="#243044"/>
  <rect x="306" y="492" width="860" height="154" rx="24" fill="#101827" stroke="#243044"/>
  <text x="70" y="88" fill="#F8FAFC" font-size="30" font-family="Inter,Arial" font-weight="700">Gatehouse</text>
  <text x="70" y="118" fill="#94A3B8" font-size="15" font-family="Inter,Arial">Pipeline review</text>
  <rect x="66" y="166" width="172" height="40" rx="12" fill="#172033"/>
  <rect x="66" y="222" width="172" height="40" rx="12" fill="#0B1020"/>
  <rect x="66" y="278" width="172" height="40" rx="12" fill="#0B1020"/>
  <text x="338" y="92" fill="#F8FAFC" font-size="34" font-family="Inter,Arial" font-weight="700">CI/CD risk review before merge</text>
  <text x="338" y="124" fill="#94A3B8" font-size="17" font-family="Inter,Arial">Find broad permissions, unpinned actions, secret exposure and weak deployment gates.</text>
  <rect x="338" y="214" width="466" height="30" rx="8" fill="#0B1020"/>
  <rect x="338" y="260" width="420" height="30" rx="8" fill="#0B1020"/>
  <rect x="338" y="306" width="462" height="30" rx="8" fill="#0B1020"/>
  <rect x="338" y="352" width="382" height="30" rx="8" fill="#0B1020"/>
  <path d="M1013 224a100 100 0 1 1 0 200a100 100 0 0 1 0-200Z" fill="#0B1020" stroke="#88E0FF" stroke-width="18"/>
  <text x="978" y="336" fill="#F8FAFC" font-size="46" font-family="Inter,Arial" font-weight="800">72</text>
  <text x="948" y="372" fill="#94A3B8" font-size="17" font-family="Inter,Arial">Grade B</text>
  <rect x="338" y="532" width="190" height="70" rx="16" fill="#0B1020"/>
  <rect x="552" y="532" width="190" height="70" rx="16" fill="#0B1020"/>
  <rect x="766" y="532" width="190" height="70" rx="16" fill="#0B1020"/>
  <rect x="980" y="532" width="120" height="70" rx="16" fill="#0B1020"/>
  <text x="358" y="576" fill="#FF6B81" font-size="24" font-family="Inter,Arial" font-weight="800">1 Critical</text>
  <text x="572" y="576" fill="#FF9F43" font-size="24" font-family="Inter,Arial" font-weight="800">2 High</text>
  <text x="786" y="576" fill="#FFD166" font-size="24" font-family="Inter,Arial" font-weight="800">4 Medium</text>
</svg>
